<?xml version="1.0" encoding="UTF-8" standalone="no"?>
<!-- Created with Inkscape (http://www.inkscape.org/) -->

<svg
   width="48"
   height="48"
   viewBox="0 0 12.7 12.7"
   version="1.1"
   id="svg1"
   xmlns="http://www.w3.org/2000/svg"
   xmlns:svg="http://www.w3.org/2000/svg">
  <defs
     id="defs1" />
  <g
     id="layer1">
    <circle
       style="fill:#000000;stroke-width:0.284393"
       id="path1"
       cx="6.3499999"
       cy="6.3499999"
       r="6.3499999" />
    <path
       id="circle24"
       style="fill:#ffffff;stroke-width:0.284393"
       d="M 6.3143433,0.59582926 V 5.6890584 h 1.8283121 c 0.5708469,0 1.0110294,-0.1241726 1.3203329,-0.3720703 C 9.7722918,5.0690905 9.9270426,4.717647 9.9270426,4.2627889 9.9270426,3.9170968 9.8326219,3.6294958 9.6438558,3.3997925 9.457364,3.1678149 9.1946595,3.0157502 8.8557902,2.9429728 9.1378022,2.897487 9.3515401,2.7825085 9.4970947,2.598291 9.6426493,2.4140735 9.7151693,2.166245 9.7151693,1.8546672 9.7151693,1.4521178 9.573125,1.1417897 9.2888387,0.92345785 9.0045524,0.70512597 8.5998036,0.59582926 8.0744425,0.59582926 Z M 3.6364705,0.61494954 A 6.3499999,6.3499999 0 0 0 2.6003581,1.2448853 L 0.9038208,5.6890584 H 1.6303914 L 2.0944458,4.3826782 H 4.3899129 L 4.8539673,5.6890584 H 5.5707194 Z M 7.0031901,1.162203 h 1.0200928 c 0.336595,0 0.5865929,0.063326 0.7503418,0.190686 0.1660232,0.1273603 0.2490804,0.3197142 0.2490804,0.576709 0,0.259269 -0.083057,0.4524493 -0.2490804,0.5798096 C 8.6098758,2.6344936 8.3598779,2.696993 8.0232829,2.696993 H 7.0031901 Z M 3.2370117,1.2748576 4.1754557,3.8090698 H 2.3021851 Z m 7.8703203,0.8712646 v 3.5429362 h 0.688847 V 3.0845662 A 6.3499999,6.3499999 0 0 0 11.107332,2.1461222 Z M 7.0031901,3.2566488 H 8.108549 c 0.3707093,0 0.6447774,0.076032 0.822172,0.2284098 0.179669,0.1501031 0.269751,0.3843988 0.269751,0.7027995 0,0.3161263 -0.090082,0.5517651 -0.269751,0.7064168 C 8.7533264,5.0466524 8.4792583,5.1226847 8.108549,5.1226847 H 7.0031901 Z M 1.642277,6.6874471 c -0.1357586,0 -0.2855407,0.01931 -0.4490682,0.057878 -0.1635274,0.038568 -0.3394058,0.095456 -0.52761635,0.171049 V 7.3886963 C 0.85071785,7.2853345 1.0239894,7.2080952 1.1859741,7.1571859 1.3495016,7.1062765 1.5045044,7.0807048 1.651062,7.0807048 c 0.2067233,0 0.3742499,0.057929 0.5022949,0.1736328 0.1295878,0.1157033 0.1943034,0.2654854 0.1943034,0.4490682 0,0.1126179 -0.029751,0.2274357 -0.089917,0.3446818 C 2.1991203,8.163791 2.0947439,8.3057458 1.9451009,8.4739014 1.8664226,8.5633786 1.6738412,8.7632629 1.3668416,9.073348 1.164679,9.2775526 1.033419,9.4122949 0.88728434,9.5616903 A 6.3499999,6.3499999 0 0 0 1.3234334,10.204545 H 2.8360026 V 9.8112874 H 1.2045776 C 1.5809992,9.4271522 1.8727362,9.1286291 2.0794596,8.9157349 2.286183,8.7012979 2.408828,8.5718667 2.4473958,8.5271281 2.5877826,8.3543444 2.6843314,8.2045625 2.7367839,8.0780599 c 0.053995,-0.1280451 0.080615,-0.262697 0.080615,-0.4046265 0,-0.299286 -0.1064662,-0.5388311 -0.3193604,-0.7177856 C 2.2851445,6.7766933 2.0001862,6.6874471 1.642277,6.6874471 Z m 3.1744833,0 c -0.3872206,0 -0.6831373,0.1534374 -0.8883179,0.460437 -0.203638,0.3054569 -0.3054077,0.7495902 -0.3054077,1.3327352 0,0.5816023 0.1017697,1.0262524 0.3054077,1.333252 0.2051806,0.3054567 0.5010973,0.4578527 0.8883179,0.4578527 0.3872206,0 0.6826128,-0.152396 0.8862508,-0.4578527 0.2051806,-0.3069996 0.3079915,-0.7516497 0.3079915,-1.333252 0,-0.583145 -0.1028109,-1.0272783 -0.3079915,-1.3327352 C 5.4993731,6.8408845 5.2039809,6.6874471 4.8167603,6.6874471 Z m 2.8556396,0 c -0.1357586,0 -0.2855407,0.01931 -0.4490682,0.057878 -0.1635274,0.038568 -0.3394057,0.095456 -0.5276164,0.171049 V 7.3886963 C 6.8808407,7.2853345 7.054629,7.2080952 7.2166138,7.1571859 c 0.1635274,-0.050909 0.3185303,-0.076481 0.4650879,-0.076481 0.2067233,0 0.3742498,0.057929 0.5022949,0.1736328 C 8.3135844,7.3700409 8.3783,7.519823 8.3783,7.7034058 8.3783,7.8160237 8.348032,7.9308415 8.287866,8.0480876 8.2292432,8.163791 8.1253836,8.3057458 7.9757406,8.4739014 7.8970623,8.5633786 7.7039641,8.7632629 7.3969645,9.073348 7.0915076,9.3818903 6.8503895,9.6277048 6.6729777,9.8112874 V 10.204545 H 8.8666423 V 9.8112874 H 7.2352173 C 7.6116389,9.4271522 7.9033759,9.1286291 8.1100993,8.9157349 8.3168226,8.7012979 8.4394677,8.5718667 8.4780355,8.5271281 8.6184222,8.3543444 8.7144543,8.2045625 8.7669067,8.0780599 c 0.053995,-0.1280451 0.081132,-0.262697 0.081132,-0.4046265 0,-0.299286 -0.1064661,-0.5388311 -0.3193603,-0.7177856 C 8.3157842,6.7766933 8.030309,6.6874471 7.6723999,6.6874471 Z m 3.4318321,0 c -0.436588,0 -0.784688,0.1628302 -1.043864,0.4883423 -0.2591756,0.3239695 -0.3886069,0.75871 -0.3886069,1.3048299 0,0.5816023 0.1059418,1.0262524 0.3172933,1.333252 0.2113516,0.3054567 0.5166616,0.4578527 0.9162236,0.4578527 0.180745,0 0.342331,-0.02925 0.485758,-0.08682 a 6.3499999,6.3499999 0 0 0 0.666109,-1.0697021 c 7.1e-5,-0.00649 5.17e-4,-0.012586 5.17e-4,-0.01912 0,-0.3625373 -0.101245,-0.6485368 -0.303341,-0.8583455 -0.200552,-0.2113516 -0.474028,-0.3167766 -0.821138,-0.3167766 -0.16507,0 -0.316418,0.036013 -0.453719,0.1085205 -0.137302,0.070965 -0.251595,0.1737757 -0.342615,0.3079916 0.02314,-0.4211603 0.116034,-0.7358624 0.278019,-0.9441284 0.163527,-0.2082661 0.399425,-0.3126424 0.707967,-0.3126424 0.117247,0 0.235195,0.014614 0.353984,0.043925 0.120331,0.029312 0.239321,0.072103 0.356567,0.1276408 V 6.8264567 C 11.703798,6.7801756 11.578547,6.745211 11.458215,6.7220703 11.339427,6.6989296 11.221478,6.6874471 11.104232,6.6874471 Z M 4.8167603,7.0574504 c 0.2422057,0 0.4238213,0.1189898 0.5441528,0.3565673 0.1218742,0.236035 0.1824178,0.5914465 0.1824178,1.0666016 0,0.4736125 -0.060544,0.8295407 -0.1824178,1.0671183 C 5.2405816,9.7837725 5.058966,9.9017212 4.8167603,9.9017212 4.5760973,9.9017212 4.3949984,9.7837725 4.2731242,9.5477376 4.1527927,9.31016 4.0927734,8.9542318 4.0927734,8.4806193 c 0,-0.4751551 0.060019,-0.8305666 0.1803508,-1.0666016 C 4.3949984,7.1764402 4.5760973,7.0574504 4.8167603,7.0574504 Z m 6.0885177,1.2335164 c 0.209808,0 0.375769,0.072019 0.497644,0.2154907 0.123416,0.1434722 0.185001,0.3397088 0.185001,0.5896281 0,0.2483765 -0.06158,0.4451299 -0.185001,0.5901449 -0.121875,0.1434721 -0.287836,0.2154907 -0.497644,0.2154907 -0.209809,0 -0.376294,-0.072019 -0.499712,-0.2154907 -0.121874,-0.145015 -0.182934,-0.3417684 -0.182934,-0.5901449 0,-0.2499193 0.06106,-0.4461559 0.182934,-0.5896281 0.123418,-0.1434722 0.289903,-0.2154907 0.499712,-0.2154907 z" />
  </g>
</svg>
